<svg width="60" height="60" viewBox="0 0 60 60" fill="none" xmlns="http://www.w3.org/2000/svg">
<mask id="mask0_6_44" style="mask-type:alpha" maskUnits="userSpaceOnUse" x="0" y="0" width="60" height="60">
<path d="M59.9999 29.9142C60.0473 46.4826 46.6543 59.9525 30.0858 59.9999C13.5174 60.0473 0.0475282 46.6543 0.000125106 30.0858C-0.047278 13.5173 13.3457 0.0475097 29.9142 0.000106637C46.4826 -0.0472964 59.9525 13.3457 59.9999 29.9142Z" fill="#999999"/>
</mask>
<g mask="url(#mask0_6_44)">
<g filter="url(#filter0_i_6_44)">
<path d="M59.9999 29.9142C60.0473 46.4826 46.6543 59.9525 30.0858 59.9999C13.5174 60.0473 0.0475282 46.6543 0.000125106 30.0858C-0.047278 13.5173 13.3457 0.0475097 29.9142 0.000106637C46.4826 -0.0472964 59.9525 13.3457 59.9999 29.9142Z" fill="white"/>
</g>
<path d="M59.9999 29.9142C60.0473 46.4826 46.6543 59.9525 30.0858 59.9999C13.5174 60.0473 0.0475282 46.6543 0.000125106 30.0858C-0.047278 13.5173 13.3457 0.0475097 29.9142 0.000106637C46.4826 -0.0472964 59.9525 13.3457 59.9999 29.9142Z" stroke="black" stroke-width="2"/>
<g filter="url(#filter1_d_6_44)">
<circle cx="50.0079" cy="10.9936" r="15" transform="rotate(-0.35861 50.0079 10.9936)" fill="#FF0000"/>
</g>
<g filter="url(#filter2_d_6_44)">
<circle cx="14.9571" cy="53.9429" r="15" transform="rotate(-0.163925 14.9571 53.9429)" fill="#0029FF"/>
</g>
<path d="M24.1037 32.1096C23.3941 32.1096 22.7398 31.9273 22.1409 31.5627C21.5484 31.1982 21.0731 30.7131 20.7151 30.1077C20.3635 29.4957 20.1877 28.8251 20.1877 28.0959V27.178C20.1877 27.1064 20.2203 27.0706 20.2854 27.0706H22.5315C22.5836 27.0706 22.6096 27.1064 22.6096 27.178V28.0959C22.6096 28.5321 22.7561 28.9097 23.0491 29.2288C23.342 29.5413 23.6936 29.6975 24.1037 29.6975C24.5204 29.6975 24.8752 29.538 25.1682 29.219C25.4612 28.8935 25.6077 28.5191 25.6077 28.0959C25.6077 27.6077 25.2886 27.1812 24.6506 26.8166C24.5465 26.7515 24.4097 26.6734 24.2405 26.5823C24.0777 26.4846 23.8824 26.3739 23.6545 26.2502C23.4267 26.1265 23.2053 26.0061 22.9905 25.8889C22.7756 25.7652 22.5673 25.648 22.3655 25.5374C21.6363 25.1077 21.0927 24.5706 20.7346 23.926C20.383 23.275 20.2073 22.5458 20.2073 21.7385C20.2073 20.9963 20.3896 20.3258 20.7541 19.7268C21.1187 19.1344 21.594 18.6656 22.1799 18.3206C22.7724 17.969 23.4136 17.7932 24.1037 17.7932C24.8134 17.7932 25.4644 17.969 26.0569 18.3206C26.6493 18.6786 27.1213 19.1539 27.4729 19.7463C27.831 20.3388 28.01 21.0028 28.01 21.7385V23.3791C28.01 23.4312 27.984 23.4573 27.9319 23.4573H25.6858C25.6337 23.4573 25.6077 23.4312 25.6077 23.3791L25.5881 21.7385C25.5881 21.2698 25.4416 20.8889 25.1487 20.5959C24.8557 20.303 24.5074 20.1565 24.1037 20.1565C23.6936 20.1565 23.342 20.3127 23.0491 20.6252C22.7561 20.9377 22.6096 21.3088 22.6096 21.7385C22.6096 22.1747 22.7008 22.5393 22.883 22.8323C23.0718 23.1252 23.4136 23.4052 23.9084 23.6721C23.9605 23.6982 24.081 23.7633 24.2698 23.8674C24.4586 23.9716 24.6669 24.0888 24.8948 24.219C25.1291 24.3427 25.3407 24.4566 25.5295 24.5608C25.7183 24.6584 25.8323 24.717 25.8713 24.7366C26.5354 25.1077 27.0595 25.5634 27.4436 26.1038C27.8342 26.6441 28.0295 27.3082 28.0295 28.0959C28.0295 28.8577 27.8537 29.5413 27.5022 30.1467C27.1441 30.7522 26.6688 31.2307 26.0764 31.5823C25.484 31.9338 24.8264 32.1096 24.1037 32.1096Z" fill="black"/>
</g>
<defs>
<filter id="filter0_i_6_44" x="-1" y="-1" width="62" height="66" filterUnits="userSpaceOnUse" color-interpolation-filters="sRGB">
<feFlood flood-opacity="0" result="BackgroundImageFix"/>
<feBlend mode="normal" in="SourceGraphic" in2="BackgroundImageFix" result="shape"/>
<feColorMatrix in="SourceAlpha" type="matrix" values="0 0 0 0 0 0 0 0 0 0 0 0 0 0 0 0 0 0 127 0" result="hardAlpha"/>
<feOffset dy="4"/>
<feGaussianBlur stdDeviation="2"/>
<feComposite in2="hardAlpha" operator="arithmetic" k2="-1" k3="1"/>
<feColorMatrix type="matrix" values="0 0 0 0 0 0 0 0 0 0 0 0 0 0 0 0 0 0 0.25 0"/>
<feBlend mode="normal" in2="shape" result="effect1_innerShadow_6_44"/>
</filter>
<filter id="filter1_d_6_44" x="31.0079" y="-4.00647" width="38" height="38.0001" filterUnits="userSpaceOnUse" color-interpolation-filters="sRGB">
<feFlood flood-opacity="0" result="BackgroundImageFix"/>
<feColorMatrix in="SourceAlpha" type="matrix" values="0 0 0 0 0 0 0 0 0 0 0 0 0 0 0 0 0 0 127 0" result="hardAlpha"/>
<feOffset dy="4"/>
<feGaussianBlur stdDeviation="2"/>
<feComposite in2="hardAlpha" operator="out"/>
<feColorMatrix type="matrix" values="0 0 0 0 0 0 0 0 0 0 0 0 0 0 0 0 0 0 0.25 0"/>
<feBlend mode="normal" in2="BackgroundImageFix" result="effect1_dropShadow_6_44"/>
<feBlend mode="normal" in="SourceGraphic" in2="effect1_dropShadow_6_44" result="shape"/>
</filter>
<filter id="filter2_d_6_44" x="-4.04285" y="38.9429" width="38" height="38" filterUnits="userSpaceOnUse" color-interpolation-filters="sRGB">
<feFlood flood-opacity="0" result="BackgroundImageFix"/>
<feColorMatrix in="SourceAlpha" type="matrix" values="0 0 0 0 0 0 0 0 0 0 0 0 0 0 0 0 0 0 127 0" result="hardAlpha"/>
<feOffset dy="4"/>
<feGaussianBlur stdDeviation="2"/>
<feComposite in2="hardAlpha" operator="out"/>
<feColorMatrix type="matrix" values="0 0 0 0 0 0 0 0 0 0 0 0 0 0 0 0 0 0 0.25 0"/>
<feBlend mode="normal" in2="BackgroundImageFix" result="effect1_dropShadow_6_44"/>
<feBlend mode="normal" in="SourceGraphic" in2="effect1_dropShadow_6_44" result="shape"/>
</filter>
</defs>
</svg>
